<?xml version="1.0" encoding="UTF-8" standalone="no"?>
<!-- Created with Keyshape -->
<svg xmlns="http://www.w3.org/2000/svg" width="44" height="44" viewBox="0 0 44 44" fill="none">
    <style>
@keyframes a0_t { 0% { transform: translate(21.999999px,22px) rotate(-10deg) translate(-21.999999px,-22px); animation-timing-function: cubic-bezier(0.77,0,0.175,1); } 50% { transform: translate(21.999999px,22px) rotate(10deg) translate(-21.999999px,-22px); animation-timing-function: cubic-bezier(0.77,0,0.175,1); } 100% { transform: translate(21.999999px,22px) rotate(-10deg) translate(-21.999999px,-22px); } }
    </style>
    <rect width="42" height="42" rx="7" stroke="#52BE7F" stroke-width="2" transform="translate(22,22) translate(-21,-21)"/>
    <path d="M22,7C13.1776,7,6.00004,13.3747,6.00004,21.2105C6.00004,23.9495,6.87791,26.6026,8.54297,28.8968C8.22777,32.3374,7.38297,34.8916,6.15631,36.1016C5.99418,36.2616,5.95364,36.5063,6.05604,36.7084C6.14671,36.8889,6.33338,37,6.53338,37C6.55791,37,6.58244,36.9984,6.60751,36.9947C6.82351,36.9647,11.8411,36.2521,15.4704,34.1847C17.5312,35.0053,19.7264,35.4211,22,35.4211C30.8224,35.4211,38,29.0463,38,21.2105C38,13.3747,30.8224,7,22,7ZM14.5334,23.3158C13.3568,23.3158,12.4,22.3716,12.4,21.2105C12.4,20.0495,13.3568,19.1053,14.5334,19.1053C15.7099,19.1053,16.6667,20.0495,16.6667,21.2105C16.6667,22.3716,15.7099,23.3158,14.5334,23.3158ZM22,23.3158C20.8235,23.3158,19.8667,22.3716,19.8667,21.2105C19.8667,20.0495,20.8235,19.1053,22,19.1053C23.1766,19.1053,24.1334,20.0495,24.1334,21.2105C24.1334,22.3716,23.1766,23.3158,22,23.3158ZM29.4667,23.3158C28.2901,23.3158,27.3333,22.3716,27.3333,21.2105C27.3333,20.0495,28.2901,19.1053,29.4667,19.1053C30.6432,19.1053,31.6,20.0495,31.6,21.2105C31.6,22.3716,30.6432,23.3158,29.4667,23.3158Z" fill="#52BE7F" transform="translate(22,22) rotate(-10) translate(-22,-22)" style="animation: 4s linear infinite both a0_t;"/>
</svg>
